<?xml version="1.0" standalone="no"?>
<!DOCTYPE svg PUBLIC "-//W3C//DTD SVG 20010904//EN"
 "http://www.w3.org/TR/2001/REC-SVG-20010904/DTD/svg10.dtd">
<svg version="1.0" xmlns="http://www.w3.org/2000/svg"
 width="500.000000pt" height="500.000000pt" viewBox="0 0 500.000000 500.000000"
 preserveAspectRatio="xMidYMid meet">

<g transform="translate(0.000000,500.000000) scale(0.100000,-0.100000)"
fill="#000000" stroke="none">
<path d="M1875 3551 c-335 -125 -796 -297 -1022 -381 -227 -85 -409 -157 -405
-161 4 -3 120 -48 257 -99 138 -51 285 -106 328 -122 l77 -30 0 -126 c0 -120
-2 -128 -24 -149 -30 -29 -38 -70 -20 -107 9 -19 14 -62 14 -122 0 -53 4 -94
10 -96 6 -2 -5 -152 -30 -411 -46 -473 -47 -478 -21 -501 45 -41 166 -42 217
-1 l28 22 -41 439 c-42 459 -46 617 -17 658 22 32 17 81 -11 115 -25 28 -26
35 -23 139 l3 109 652 -244 652 -245 308 115 c1255 468 1739 650 1745 655 4 4
-124 56 -285 116 -161 60 -622 232 -1024 382 -403 151 -738 274 -745 274 -7
-1 -287 -103 -623 -229z"/>
<path d="M1452 2293 c3 -232 5 -252 27 -306 83 -208 348 -380 695 -451 486
-101 1056 47 1274 330 91 117 96 140 100 427 2 169 0 247 -7 247 -6 0 -239
-85 -518 -190 -278 -104 -514 -190 -523 -190 -9 0 -245 86 -523 190 -279 105
-512 190 -518 190 -7 0 -9 -78 -7 -247z"/>
</g>
</svg>
