<?xml version="1.0" standalone="no"?>
<!DOCTYPE svg PUBLIC "-//W3C//DTD SVG 20010904//EN"
 "http://www.w3.org/TR/2001/REC-SVG-20010904/DTD/svg10.dtd">
<svg version="1.0" xmlns="http://www.w3.org/2000/svg"
 width="500.000000pt" height="500.000000pt" viewBox="0 0 500.000000 500.000000"
 preserveAspectRatio="xMidYMid meet">
<metadata>
Created by potrace 1.14, written by Peter Selinger 2001-2017
</metadata>
<g transform="translate(0.000000,500.000000) scale(0.100000,-0.100000)"
fill="#000000" stroke="none">
<path d="M2507 3964 c-1 -1 -72 -4 -157 -8 -145 -5 -211 -13 -239 -31 -7 -4
-26 -9 -44 -12 -17 -3 -48 -13 -69 -24 -20 -10 -48 -19 -61 -19 -13 0 -32 -7
-43 -15 -10 -8 -27 -15 -37 -15 -22 0 -215 -134 -282 -195 l-50 -46 44 31 c42
28 79 40 67 21 -3 -5 36 12 87 36 159 78 339 140 321 112 -4 -7 0 -9 12 -5 11
3 31 7 47 10 15 3 35 7 45 10 39 11 117 16 101 6 -9 -5 -25 -11 -35 -13 -11
-2 -26 -7 -34 -10 -8 -3 -28 -8 -45 -11 -43 -6 -65 -16 -65 -30 0 -6 -37 -24
-82 -40 -46 -16 -90 -35 -98 -44 -13 -13 -12 -13 8 -2 13 6 26 9 30 6 7 -8 7
-8 -63 -46 -33 -18 -76 -42 -95 -53 -41 -22 -67 -46 -30 -27 48 25 2 -18 -61
-56 -56 -34 -83 -57 -38 -33 12 6 31 13 43 14 40 7 63 15 149 54 88 40 117 50
122 41 3 -4 -12 -16 -33 -27 -77 -39 -143 -95 -129 -109 2 -2 25 7 51 21 56
30 194 77 210 72 6 -2 -6 -11 -27 -20 -102 -44 -237 -111 -237 -119 0 -4 8 -4
18 1 38 20 177 69 182 64 11 -11 -66 -62 -111 -73 -27 -7 -47 -16 -44 -20 3
-5 -3 -13 -12 -19 -34 -20 -4 -11 96 28 111 43 167 59 158 43 -4 -6 8 -7 32
-2 31 5 38 4 34 -7 -3 -9 3 -13 19 -13 28 0 91 20 85 26 -2 3 -16 0 -30 -5
-18 -7 -28 -7 -33 1 -9 15 13 26 71 34 27 3 59 8 70 10 33 7 197 6 256 -1 107
-13 213 -45 331 -100 53 -24 96 -58 53 -41 -15 5 -16 4 -5 -9 8 -9 21 -13 32
-9 45 14 251 -165 352 -305 56 -78 58 -83 41 -101 -28 -31 -43 -88 -34 -129
12 -54 70 -101 125 -101 41 0 43 -2 49 -32 3 -18 9 -54 14 -81 5 -26 5 -50 1
-52 -5 -3 -7 -27 -5 -53 l4 -47 -19 37 c-18 33 -40 58 -40 44 0 -3 12 -31 26
-63 31 -70 29 -121 -11 -238 -50 -145 -153 -287 -279 -384 -106 -81 -335 -205
-396 -215 -20 -3 -63 -12 -97 -19 -33 -8 -75 -14 -92 -12 -17 1 -34 -1 -37 -6
-8 -13 -88 -11 -102 3 -9 9 -12 9 -12 0 0 -9 -5 -10 -19 -2 -11 5 -50 17 -88
25 -37 9 -76 18 -85 21 -37 11 -16 -15 25 -31 108 -41 299 -58 402 -35 68 14
257 81 250 88 -3 3 61 40 142 81 81 42 160 84 176 95 15 10 27 14 27 8 0 -5
-11 -17 -24 -25 -13 -9 -30 -22 -37 -30 -8 -7 -24 -19 -36 -26 -13 -6 -27 -20
-33 -31 -9 -17 -7 -22 10 -28 21 -8 21 -8 -2 -28 -13 -12 -43 -33 -68 -47 -25
-15 -42 -27 -38 -27 16 0 127 58 162 85 20 15 39 25 42 22 3 -3 -3 -10 -15
-16 -27 -15 -24 -50 4 -44 31 7 -30 -42 -85 -68 -25 -12 -85 -41 -135 -64 -97
-47 -150 -61 -260 -70 -85 -7 -71 10 17 20 38 5 58 12 58 20 0 7 6 16 13 18 6
3 -5 5 -26 4 -20 0 -40 3 -44 6 -3 4 1 7 10 7 9 0 19 5 22 10 5 7 -14 9 -57 5
-95 -8 -195 -9 -277 -2 -57 5 -77 3 -88 -8 -12 -12 -19 -13 -46 -2 -18 7 -48
12 -69 10 -25 -1 -38 3 -42 13 -4 9 -13 13 -23 10 -10 -3 -48 10 -86 29 -37
19 -71 34 -75 34 -19 -3 -23 2 -13 15 17 20 5 38 -52 76 -29 19 -82 65 -119
103 -38 37 -68 61 -68 53 0 -8 21 -36 48 -62 31 -31 37 -39 17 -26 -73 50
-152 156 -185 252 -12 36 -28 78 -35 94 l-13 29 -12 -23 c-17 -31 -27 -15 -37
55 -6 43 -12 60 -23 60 -26 0 -24 -74 5 -150 28 -75 30 -85 15 -85 -5 0 -10 6
-10 14 0 7 -9 16 -20 19 -16 4 -18 2 -10 -13 28 -51 -9 -46 -41 6 -11 19 -19
40 -16 47 2 6 -10 44 -26 82 -30 72 -43 165 -27 195 5 9 11 47 14 84 8 113 16
87 16 -52 l0 -132 91 0 c57 0 88 4 84 10 -3 6 -19 10 -36 10 -16 0 -28 3 -28
8 1 4 1 14 0 22 -1 13 -3 13 -10 0 -6 -8 -7 -18 -5 -22 3 -4 -14 -8 -37 -8
l-42 0 6 143 c4 121 8 148 26 182 12 22 26 39 31 38 5 -1 12 12 16 30 3 17 10
34 15 37 27 18 28 175 0 233 -10 23 -22 53 -26 66 -25 85 -180 117 -298 63
-39 -18 -59 -33 -63 -49 -3 -12 -21 -31 -39 -42 -41 -24 -91 -90 -106 -140 -5
-20 -13 -107 -16 -195 -5 -151 0 -204 27 -256 8 -17 -17 -90 -30 -90 -5 0 -12
10 -16 22 -16 53 -98 211 -101 197 -2 -8 19 -63 47 -121 27 -59 50 -111 50
-117 0 -19 23 -24 35 -8 9 13 15 -2 29 -86 24 -133 58 -249 103 -350 44 -99
155 -271 189 -293 13 -9 24 -22 24 -28 0 -7 15 -26 33 -43 40 -37 206 -163
215 -163 4 0 -20 26 -54 58 -33 31 -51 50 -40 41 45 -35 183 -127 213 -143 18
-9 44 -28 58 -43 14 -16 25 -22 25 -15 0 17 46 8 110 -20 25 -11 63 -22 85
-25 22 -2 46 -10 53 -16 18 -14 232 -67 232 -56 0 4 -6 10 -12 13 -7 4 2 4 20
1 56 -8 35 11 -33 30 -41 11 -65 22 -65 31 0 14 37 13 60 -1 5 -3 10 -1 10 4
0 6 -8 11 -17 11 -22 0 -5 17 22 22 13 3 -1 11 -40 22 -196 59 -256 79 -261
87 -8 14 13 11 126 -20 85 -22 108 -25 118 -15 9 10 4 15 -26 25 -20 6 -41 16
-47 22 -7 7 -6 7 3 2 8 -4 43 -7 78 -7 35 0 64 -4 64 -9 0 -5 9 -9 21 -9 11 0
17 5 14 10 -4 7 12 8 47 4 62 -8 52 -8 148 1 41 4 106 8 143 9 38 1 72 7 75
12 4 5 41 20 82 33 101 31 188 76 333 172 67 44 127 77 134 75 7 -3 15 -1 18
4 4 6 17 10 30 10 43 0 178 166 257 315 50 94 110 280 123 377 10 83 18 177
18 218 0 91 -15 285 -23 295 -10 13 -23 85 -15 85 14 0 76 -180 92 -269 17
-96 10 -319 -12 -373 -4 -10 -3 -18 3 -18 6 0 16 16 23 35 7 19 15 35 19 36 3
0 38 2 79 3 l74 2 16 -38 c9 -21 21 -38 28 -38 7 0 -4 34 -26 83 -21 45 -48
103 -60 129 -34 76 -39 74 -87 -34 -16 -37 -33 -68 -37 -68 -5 0 -5 5 -1 11 6
11 11 44 30 194 7 52 20 79 35 69 5 -3 7 -17 5 -30 -3 -17 -1 -24 7 -21 7 2
10 13 9 23 -4 20 -4 27 -2 104 4 103 -58 297 -145 452 -114 205 -243 365 -371
459 -30 22 -54 44 -54 48 0 5 -21 23 -47 40 -27 17 -65 44 -85 60 -21 15 -102
54 -180 85 -79 32 -150 64 -159 72 -19 17 -163 54 -192 49 -11 -3 -27 1 -35 8
-12 9 -157 28 -165 21z m913 -1092 c0 -5 15 -33 34 -64 65 -108 66 -142 5
-129 -78 16 -117 110 -73 179 14 22 34 30 34 14z m550 -465 c0 -4 9 -27 20
-49 11 -23 20 -45 20 -50 0 -4 -30 -8 -66 -8 -49 0 -65 3 -61 13 3 6 17 40 32
75 25 56 29 60 41 45 7 -10 14 -22 14 -26z m-2545 -889 c22 -29 56 -71 75 -92
34 -40 35 -40 5 -19 -55 39 -156 163 -133 163 8 0 32 -24 53 -52z m882 -454
c-3 -3 -12 -4 -19 -1 -8 3 -5 6 6 6 11 1 17 -2 13 -5z"/>
<path d="M1818 3644 c-27 -13 -48 -27 -48 -29 0 -3 23 6 50 20 28 14 50 28 50
30 0 7 1 7 -52 -21z"/>
<path d="M2032 3380 c-12 -19 -11 -20 8 -8 11 7 20 16 20 20 0 15 -15 8 -28
-12z"/>
<path d="M1943 3354 c-38 -16 -46 -39 -10 -28 29 9 77 33 77 39 0 9 -35 3 -67
-11z"/>
<path d="M1758 2924 c-5 -28 -2 -264 3 -264 4 0 9 6 11 13 6 19 1 247 -6 254
-3 4 -7 2 -8 -3z"/>
<path d="M1993 2915 c-56 -24 -88 -100 -70 -162 24 -77 121 -117 193 -78 18
10 31 22 28 26 -3 5 -16 2 -29 -7 -52 -34 -142 -10 -163 43 -23 58 -18 95 16
133 34 40 94 50 141 25 40 -20 53 -13 17 10 -33 22 -94 26 -133 10z"/>
<path d="M2336 2858 c-18 -40 -45 -97 -60 -127 -28 -59 -31 -71 -17 -71 5 0
16 17 24 38 l15 38 78 -2 c43 0 79 -5 81 -10 10 -28 30 -58 40 -61 7 -3 -9 42
-35 99 -56 122 -81 168 -88 168 -3 0 -20 -33 -38 -72z m46 -106 c-35 -2 -66
-1 -68 1 -2 2 11 36 28 76 l32 72 36 -73 36 -73 -64 -3z"/>
<path d="M2636 2923 c-11 -11 -7 -263 4 -263 6 0 10 19 10 43 l0 42 50 3 c49
2 51 2 82 -43 17 -25 39 -45 47 -45 9 0 12 3 6 8 -11 8 -55 69 -55 76 0 3 12
17 26 31 20 20 25 33 22 67 -4 58 -37 80 -122 84 -35 1 -67 0 -70 -3z m137
-24 c30 -16 37 -28 37 -65 0 -47 -29 -67 -100 -69 l-60 -3 0 74 0 74 51 0 c28
0 60 -5 72 -11z"/>
<path d="M2980 2793 l0 -134 75 2 c90 2 133 22 157 70 32 67 6 147 -58 178
-16 8 -62 16 -101 16 l-73 2 0 -134z m159 101 c44 -17 74 -65 67 -106 -3 -12
-5 -29 -5 -36 -1 -8 -15 -27 -32 -43 -28 -26 -38 -29 -100 -29 l-69 0 0 113 0
114 49 2 c28 1 68 -6 90 -15z"/>
<path d="M3922 2505 c-6 -14 -7 -25 -2 -25 9 0 25 39 18 46 -3 2 -10 -7 -16
-21z"/>
<path d="M1790 2346 l0 -136 85 0 c50 0 85 4 85 10 0 6 -32 10 -75 10 l-75 0
0 119 c0 69 -4 122 -10 126 -6 4 -10 -42 -10 -129z"/>
<path d="M2163 2468 c-24 -31 -120 -258 -110 -258 7 0 19 17 27 37 l16 38 76
0 77 0 17 -37 c15 -32 34 -51 34 -32 0 11 -118 264 -123 264 -3 0 -9 -6 -14
-12z m77 -164 c0 -2 -29 -4 -65 -4 -36 0 -65 4 -65 8 0 5 9 27 20 50 11 23 25
55 31 70 11 26 12 26 45 -46 19 -41 34 -75 34 -78z"/>
<path d="M2430 2345 c0 -83 4 -135 10 -135 6 0 10 43 10 110 0 61 3 110 8 110
4 0 13 -10 21 -22 26 -41 153 -198 160 -198 12 0 14 257 1 265 -10 6 -14 -61
-10 -180 l1 -50 -23 27 c-13 14 -52 65 -88 112 -36 47 -71 87 -77 90 -10 4
-13 -26 -13 -129z"/>
<path d="M2817 2473 c-7 -13 -1 -175 8 -206 20 -73 153 -76 188 -5 17 36 23
203 7 213 -9 6 -11 -19 -12 -145 -1 -76 -55 -120 -121 -97 -41 14 -51 42 -53
145 -2 89 -6 114 -17 95z"/>
<path d="M3200 2472 c-6 -2 -10 -53 -10 -133 l0 -129 96 0 c61 0 93 4 89 10
-3 6 -42 10 -86 10 l-79 0 0 53 0 54 67 -1 c39 -1 68 4 70 10 2 7 -20 9 -67 7
l-70 -3 0 55 0 54 43 -1 c83 -1 117 2 117 10 0 8 -148 11 -170 4z"/>
<path d="M1542 2059 c6 -16 12 -28 14 -26 5 5 -13 57 -20 57 -3 0 0 -14 6 -31z"/>
</g>
</svg>
